# xmcd
#
# Track frame offsets: 
#        150
#        14282
#        37389
#        53136
#        66772
#        82590
#        97901
#        113881
#        128027
#
# Disc length: 2064 seconds
#
# Revision: 0
# Processed by: cddbd v1.5.2PL0 Copyright (c) Steve Scherf et al.
# Submitted via: ExactAudioCopyFreeDBPlugin 1.0
#
DISCID=6b080e09
DTITLE=JT Coldfire - Coldblooded
DYEAR=2010
DGENRE=blues
TTITLE0=Snakebite boogie
TTITLE1=2:19
TTITLE2=Feed that cat
TTITLE3=Lower than ladder (Revisited)
TTITLE4=Big in Japan
TTITLE5=What'd You expect?
TTITLE6=Coldblooded
TTITLE7=What the hell is wrong with You?
TTITLE8=Lower than ladder (Revisited) - Uncut
EXTD=
EXTT0=
EXTT1=
EXTT2=
EXTT3=
EXTT4=
EXTT5=
EXTT6=
EXTT7=
EXTT8=
PLAYORDER=
